<svg xmlns="http://www.w3.org/2000/svg" viewBox="0 0 32 32">
  <defs>
    <linearGradient id="chrome-a" x1="0" y1="0" x2="1" y2="1">
      <stop offset="0%" stop-color="#606060"/>
      <stop offset="40%" stop-color="#D8D8D8"/>
      <stop offset="60%" stop-color="#B0B0B0"/>
      <stop offset="100%" stop-color="#808080"/>
    </linearGradient>
    <linearGradient id="chrome-b" x1="1" y1="0" x2="0" y2="1">
      <stop offset="0%" stop-color="#909090"/>
      <stop offset="50%" stop-color="#E0E0E0"/>
      <stop offset="100%" stop-color="#707070"/>
    </linearGradient>
  </defs>
  <!-- Upper S ribbon -->
  <path d="M22 6C22 6 19.5 3 15.5 3C11.5 3 8 5.5 8 9C8 12.5 11 14 16 15.5" stroke="url(#chrome-a)" stroke-width="3.5" stroke-linecap="round" fill="none"/>
  <!-- Lower S ribbon -->
  <path d="M16 16.5C21 18 24 19.5 24 23C24 26.5 20.5 29 16.5 29C12.5 29 10 26 10 26" stroke="url(#chrome-b)" stroke-width="3.5" stroke-linecap="round" fill="none"/>
  <!-- Pixel dissolve effect (small squares at the top) -->
  <rect x="21" y="3" width="2" height="2" fill="#B0B0B0" opacity="0.8"/>
  <rect x="24" y="2" width="1.5" height="1.5" fill="#909090" opacity="0.6"/>
  <rect x="23" y="5" width="1.5" height="1.5" fill="#A0A0A0" opacity="0.5"/>
  <rect x="25.5" y="4" width="1" height="1" fill="#808080" opacity="0.4"/>
</svg>
